<?xml version="1.0" standalone="no"?>
<!DOCTYPE svg PUBLIC "-//W3C//DTD SVG 20010904//EN"
 "http://www.w3.org/TR/2001/REC-SVG-20010904/DTD/svg10.dtd">
<svg version="1.0" xmlns="http://www.w3.org/2000/svg"
 width="700.000000pt" height="700.000000pt" viewBox="0 0 700.000000 700.000000"
 preserveAspectRatio="xMidYMid meet">
<metadata>
Created by potrace 1.11, written by Peter Selinger 2001-2013
</metadata>
<g transform="translate(0.000000,700.000000) scale(0.100000,-0.100000)"
fill="#000000" stroke="none">
<path d="M3454 6988 c-11 -5 -29 -24 -39 -41 -16 -28 -19 -54 -18 -224 0 -215
5 -232 69 -259 29 -12 39 -12 68 0 65 27 69 44 69 259 0 219 -7 248 -65 265
-39 12 -57 12 -84 0z"/>
<path d="M3199 6246 c-2 -2 -26 -7 -54 -10 -76 -11 -229 -51 -336 -90 -196
-71 -371 -165 -539 -290 -100 -75 -300 -267 -366 -351 -21 -27 -41 -52 -45
-55 -3 -3 -38 -53 -77 -113 -134 -205 -231 -431 -285 -662 -25 -105 -30 -134
-46 -270 -9 -70 -6 -391 3 -450 4 -22 12 -67 17 -100 15 -87 63 -267 99 -364
146 -399 446 -773 805 -1007 115 -75 165 -127 210 -219 19 -38 37 -90 41 -115
4 -25 8 -155 8 -290 l1 -245 -35 -19 c-53 -27 -88 -65 -117 -124 -24 -49 -26
-64 -26 -181 0 -116 2 -133 26 -185 l26 -57 -20 -39 c-33 -63 -44 -218 -24
-328 13 -74 77 -150 155 -185 39 -18 68 -21 230 -23 102 -1 187 -3 190 -3 3
-1 6 -64 6 -140 1 -132 3 -143 29 -196 21 -44 39 -64 83 -93 l55 -37 267 -3
c301 -2 331 2 395 65 65 63 78 108 79 266 0 86 4 137 11 138 5 0 91 2 190 3
111 2 191 8 210 15 89 36 157 117 172 206 20 113 3 274 -34 331 -12 18 -10 28
13 79 25 54 27 69 27 187 0 118 -2 131 -27 183 -25 50 -74 100 -131 131 -19
11 -20 21 -20 260 1 266 6 308 52 402 37 76 103 145 205 213 280 189 491 410
654 684 100 170 194 404 231 575 25 121 38 220 31 248 -11 42 -52 72 -97 72
-60 -1 -97 -42 -107 -122 -21 -164 -87 -376 -168 -542 -151 -309 -356 -539
-674 -755 -122 -84 -201 -171 -258 -286 -64 -130 -75 -200 -75 -487 l-1 -238
-658 0 -658 0 -1 238 c0 130 -3 255 -6 277 -18 122 -76 255 -152 346 -52 61
-91 95 -200 168 -326 217 -572 520 -708 871 -63 161 -95 291 -120 485 -7 54
-8 337 -1 370 2 12 7 48 11 80 35 291 191 655 385 896 169 211 369 375 605
496 106 55 282 124 347 137 13 2 50 11 83 20 33 8 80 18 105 21 80 11 122 26
147 53 21 23 24 34 20 70 -7 65 -38 92 -102 92 -28 0 -54 -2 -56 -4z m1109
-4835 c26 -14 34 -53 29 -150 -2 -60 -7 -77 -24 -90 -19 -16 -87 -17 -816 -17
-750 1 -797 2 -814 19 -14 14 -18 37 -20 111 -2 111 6 127 68 135 24 3 384 6
799 5 551 -1 762 -4 778 -13z m8 -486 c24 -24 25 -31 23 -117 -2 -73 -7 -96
-21 -110 -17 -17 -60 -18 -815 -18 -439 0 -803 4 -809 8 -24 16 -33 52 -33
130 0 66 4 86 20 106 l20 26 795 0 795 0 25 -25z m-568 -571 c1 -65 -2 -126
-8 -134 -14 -22 -466 -22 -480 0 -13 20 -13 247 0 252 5 2 117 3 247 2 l238 0
3 -120z"/>
<path d="M3669 6221 c-64 -65 -23 -159 77 -175 16 -3 45 -7 64 -10 313 -49
643 -203 895 -416 331 -281 554 -681 625 -1120 15 -92 23 -112 51 -139 28 -26
85 -28 118 -5 37 26 50 70 40 134 -5 30 -11 73 -14 95 -22 148 -130 460 -200
575 -12 19 -24 43 -28 53 -13 34 -121 194 -192 282 -281 351 -679 606 -1110
712 -86 21 -208 42 -248 42 -41 1 -53 -4 -78 -28z"/>
<path d="M1528 6182 c-35 -29 -45 -80 -25 -118 26 -48 269 -283 302 -292 43
-11 70 -4 99 24 26 27 34 53 27 94 -5 28 -249 283 -293 306 -37 19 -77 14
-110 -14z"/>
<path d="M5355 6192 c-53 -34 -283 -276 -287 -303 -12 -81 59 -144 133 -117
29 11 275 253 295 290 21 41 17 74 -13 108 -36 40 -87 48 -128 22z"/>
<path d="M3271 5683 c-38 -13 -90 -63 -92 -88 -1 -8 -3 -19 -4 -25 -1 -5 -3
-82 -4 -171 l-1 -160 -37 -15 c-21 -8 -59 -24 -85 -36 l-48 -21 -130 126 c-71
70 -135 128 -142 128 -52 6 -87 4 -108 -5 -26 -10 -287 -261 -321 -308 -28
-39 -34 -99 -14 -140 9 -18 69 -86 133 -150 l115 -116 -33 -79 c-19 -43 -37
-81 -40 -85 -3 -4 -85 -9 -182 -10 -161 -3 -179 -5 -205 -24 -62 -47 -67 -66
-68 -298 0 -192 2 -214 20 -250 38 -76 53 -81 261 -84 150 -3 184 -6 184 -18
0 -7 14 -46 32 -85 l31 -70 -115 -117 c-64 -64 -124 -132 -133 -150 -20 -41
-14 -101 14 -140 39 -54 297 -301 326 -312 18 -7 48 -9 74 -5 40 6 57 19 172
131 l127 125 83 -35 84 -34 5 -174 c5 -174 12 -209 46 -239 46 -40 65 -43 269
-44 214 -1 257 5 293 38 43 40 47 57 52 240 l5 179 84 34 84 35 121 -120 c67
-66 135 -125 151 -131 18 -7 49 -9 75 -5 40 6 57 19 193 153 161 159 192 202
183 260 -3 21 -5 41 -6 45 0 5 -57 67 -126 138 l-127 128 34 78 c18 43 35 81
39 85 3 3 85 8 182 10 196 3 211 8 252 78 18 31 20 53 20 250 0 239 -4 257
-67 304 -29 21 -81 25 -340 26 -46 0 -49 1 -63 38 -8 20 -24 58 -36 84 l-21
48 126 129 c70 71 128 135 128 143 6 59 4 88 -12 118 -9 19 -84 101 -166 181
-119 117 -155 147 -184 153 -74 13 -96 0 -231 -132 -118 -116 -130 -125 -150
-114 -13 7 -50 23 -83 36 l-60 24 -5 174 c-3 96 -11 185 -17 200 -7 14 -28 39
-49 54 l-36 28 -210 1 c-143 0 -222 -3 -247 -12z m353 -380 c1 -176 2 -182 25
-207 14 -15 55 -35 104 -51 44 -14 116 -44 160 -66 128 -65 128 -65 302 110
l109 110 88 -87 87 -87 -129 -131 c-72 -72 -131 -139 -131 -150 -2 -39 3 -60
28 -104 29 -53 73 -156 79 -183 9 -48 26 -86 50 -108 25 -23 31 -24 197 -26
95 -1 178 -2 185 -2 9 -1 12 -33 12 -123 l0 -123 -184 0 c-180 0 -185 -1 -210
-24 -16 -15 -35 -56 -52 -110 -15 -47 -44 -117 -65 -156 -36 -68 -43 -89 -40
-129 0 -11 59 -78 131 -151 l130 -131 -83 -82 c-45 -45 -87 -82 -92 -82 -5 0
-66 56 -135 125 -70 69 -135 126 -146 126 -39 3 -58 -4 -133 -41 -42 -22 -113
-51 -157 -65 -128 -41 -129 -43 -131 -243 -1 -92 -2 -175 -2 -184 -1 -16 -14
-18 -121 -18 -107 0 -120 2 -121 18 0 9 -1 92 -2 184 -2 161 -3 167 -26 192
-15 16 -52 34 -95 47 -39 12 -110 40 -158 64 -85 43 -103 49 -141 46 -11 0
-76 -57 -146 -126 -70 -69 -131 -125 -136 -125 -4 0 -46 37 -92 82 l-83 82
125 126 c153 153 157 162 109 259 -44 89 -75 161 -80 185 -9 48 -27 85 -50
107 -25 23 -31 24 -202 26 -97 1 -180 2 -184 2 -5 1 -8 55 -8 121 0 66 3 120
8 121 4 0 87 1 184 2 213 2 212 2 254 135 15 47 43 115 62 150 46 87 52 112
37 148 -7 16 -67 83 -134 149 l-121 120 87 87 88 87 125 -124 c82 -82 136
-128 157 -134 28 -8 44 -4 123 35 49 24 125 56 169 70 125 40 126 41 128 252
1 97 2 181 2 185 1 4 56 6 122 5 l122 -3 1 -182z"/>
<path d="M3378 4734 c-101 -23 -186 -71 -263 -148 -83 -85 -128 -165 -150
-273 -20 -95 -18 -166 7 -256 27 -100 65 -163 143 -242 72 -73 181 -136 255
-149 209 -37 375 9 510 143 82 81 124 155 152 262 98 391 -259 753 -654 663z
m271 -226 c89 -41 169 -146 186 -248 43 -248 -183 -455 -425 -390 -66 18 -99
37 -151 90 -135 137 -135 345 1 480 103 104 253 130 389 68z"/>
<path d="M772 4293 c-83 -28 -95 -133 -20 -178 28 -16 54 -18 224 -18 181 1
195 2 223 23 57 40 57 120 -1 163 -22 17 -45 19 -209 20 -117 1 -195 -2 -217
-10z"/>
<path d="M5852 4299 c-72 -9 -113 -74 -87 -137 26 -59 45 -64 254 -65 211 0
238 5 267 58 15 28 16 39 6 72 -20 66 -48 75 -236 77 -88 0 -180 -2 -204 -5z"/>
<path d="M1810 2632 c-16 -2 -76 -55 -174 -153 l-149 -149 6 -42 c10 -74 82
-117 144 -84 47 25 282 268 291 301 11 43 4 70 -24 98 -26 26 -53 35 -94 29z"/>
<path d="M5143 2632 c-28 -4 -71 -47 -75 -75 -8 -50 14 -83 139 -210 71 -71
141 -135 157 -144 81 -43 176 52 133 133 -9 16 -73 86 -144 157 -127 125 -160
147 -210 139z"/>
</g>
</svg>
